<mxfile host="app.diagrams.net" modified="2023-05-01T09:24:58.260Z" agent="Mozilla/5.0 (Windows NT 10.0; Win64; x64) AppleWebKit/537.36 (KHTML, like Gecko) Chrome/112.0.0.0 Safari/537.36" etag="NnvMhONXQ9GBNWtb8jAd" version="21.2.1" type="github">
  <diagram name="Sayfa -1" id="Uszl9m0zbz8BObZut_-C">
    <mxGraphModel dx="860" dy="322" grid="1" gridSize="10" guides="1" tooltips="1" connect="1" arrows="1" fold="1" page="1" pageScale="1" pageWidth="827" pageHeight="1169" math="0" shadow="0">
      <root>
        <mxCell id="0" />
        <mxCell id="1" parent="0" />
        <mxCell id="vf-EE90771RH5l1Xeun5-1" value="Player" style="shape=umlActor;verticalLabelPosition=bottom;verticalAlign=top;html=1;" vertex="1" parent="1">
          <mxGeometry x="10" y="230" width="30" height="60" as="geometry" />
        </mxCell>
        <mxCell id="vf-EE90771RH5l1Xeun5-2" value="Game" style="html=1;whiteSpace=wrap;" vertex="1" parent="1">
          <mxGeometry x="120" y="200" width="220" height="120" as="geometry" />
        </mxCell>
        <mxCell id="vf-EE90771RH5l1Xeun5-3" value="Object : Obstacle" style="html=1;whiteSpace=wrap;" vertex="1" parent="1">
          <mxGeometry x="500" y="160" width="110" height="50" as="geometry" />
        </mxCell>
        <mxCell id="vf-EE90771RH5l1Xeun5-4" value="Object : SpaceShip" style="html=1;whiteSpace=wrap;" vertex="1" parent="1">
          <mxGeometry x="500" y="230" width="110" height="50" as="geometry" />
        </mxCell>
        <mxCell id="vf-EE90771RH5l1Xeun5-5" value="Object : Alien" style="html=1;whiteSpace=wrap;" vertex="1" parent="1">
          <mxGeometry x="500" y="300" width="110" height="50" as="geometry" />
        </mxCell>
        <mxCell id="vf-EE90771RH5l1Xeun5-6" value="Object : MysteryBox" style="html=1;whiteSpace=wrap;" vertex="1" parent="1">
          <mxGeometry x="500" y="370" width="110" height="50" as="geometry" />
        </mxCell>
        <mxCell id="vf-EE90771RH5l1Xeun5-9" value="" style="verticalLabelPosition=bottom;verticalAlign=top;html=1;shape=mxgraph.basic.arc;startAngle=0.7849814721002865;endAngle=0.21434552920444047;" vertex="1" parent="1">
          <mxGeometry x="180" y="160" width="100" height="100" as="geometry" />
        </mxCell>
        <mxCell id="vf-EE90771RH5l1Xeun5-10" value="" style="verticalLabelPosition=bottom;verticalAlign=top;html=1;shape=mxgraph.basic.arc;startAngle=0.7849814721002865;endAngle=0.21434552920444047;direction=west;" vertex="1" parent="1">
          <mxGeometry x="180" y="260" width="100" height="100" as="geometry" />
        </mxCell>
        <mxCell id="vf-EE90771RH5l1Xeun5-38" value="" style="endArrow=none;html=1;edgeStyle=orthogonalEdgeStyle;rounded=0;" edge="1" parent="1">
          <mxGeometry relative="1" as="geometry">
            <mxPoint x="340" y="200" as="sourcePoint" />
            <mxPoint x="500" y="200" as="targetPoint" />
          </mxGeometry>
        </mxCell>
        <mxCell id="vf-EE90771RH5l1Xeun5-41" value="" style="endArrow=none;html=1;edgeStyle=orthogonalEdgeStyle;rounded=0;" edge="1" parent="1">
          <mxGeometry relative="1" as="geometry">
            <mxPoint x="340" y="260" as="sourcePoint" />
            <mxPoint x="500" y="260" as="targetPoint" />
          </mxGeometry>
        </mxCell>
        <mxCell id="vf-EE90771RH5l1Xeun5-44" value="" style="endArrow=none;html=1;edgeStyle=orthogonalEdgeStyle;rounded=0;" edge="1" parent="1">
          <mxGeometry relative="1" as="geometry">
            <mxPoint x="340" y="320" as="sourcePoint" />
            <mxPoint x="500" y="320" as="targetPoint" />
          </mxGeometry>
        </mxCell>
        <mxCell id="vf-EE90771RH5l1Xeun5-47" value="" style="endArrow=none;html=1;edgeStyle=orthogonalEdgeStyle;rounded=0;exitX=1;exitY=1;exitDx=0;exitDy=0;" edge="1" parent="1" source="vf-EE90771RH5l1Xeun5-2">
          <mxGeometry relative="1" as="geometry">
            <mxPoint x="340" y="394.67" as="sourcePoint" />
            <mxPoint x="500" y="394.67" as="targetPoint" />
            <Array as="points">
              <mxPoint x="340" y="410" />
              <mxPoint x="500" y="410" />
            </Array>
          </mxGeometry>
        </mxCell>
        <mxCell id="vf-EE90771RH5l1Xeun5-50" value="" style="endArrow=none;html=1;edgeStyle=orthogonalEdgeStyle;rounded=0;" edge="1" parent="1">
          <mxGeometry relative="1" as="geometry">
            <mxPoint x="50" y="260" as="sourcePoint" />
            <mxPoint x="120" y="260" as="targetPoint" />
          </mxGeometry>
        </mxCell>
        <mxCell id="vf-EE90771RH5l1Xeun5-53" value="&lt;font style=&quot;font-size: 8px;&quot;&gt;&lt;b&gt;1. startGame()&lt;/b&gt;&lt;/font&gt;" style="text;html=1;strokeColor=none;fillColor=none;align=center;verticalAlign=middle;whiteSpace=wrap;rounded=0;" vertex="1" parent="1">
          <mxGeometry x="50" y="220" width="60" height="30" as="geometry" />
        </mxCell>
        <mxCell id="vf-EE90771RH5l1Xeun5-54" value="" style="html=1;verticalAlign=bottom;endArrow=block;edgeStyle=elbowEdgeStyle;elbow=vertical;curved=0;rounded=0;" edge="1" parent="1">
          <mxGeometry width="80" relative="1" as="geometry">
            <mxPoint x="200" y="140" as="sourcePoint" />
            <mxPoint x="280" y="140" as="targetPoint" />
          </mxGeometry>
        </mxCell>
        <mxCell id="vf-EE90771RH5l1Xeun5-55" value="" style="html=1;verticalAlign=bottom;endArrow=block;edgeStyle=elbowEdgeStyle;elbow=vertical;curved=0;rounded=0;" edge="1" parent="1">
          <mxGeometry width="80" relative="1" as="geometry">
            <mxPoint x="200" y="110" as="sourcePoint" />
            <mxPoint x="280" y="110" as="targetPoint" />
          </mxGeometry>
        </mxCell>
        <mxCell id="vf-EE90771RH5l1Xeun5-56" value="&lt;font style=&quot;font-size: 8px;&quot;&gt;&lt;b&gt;1.1.1 createObject()&lt;/b&gt;&lt;/font&gt;" style="text;html=1;strokeColor=none;fillColor=none;align=center;verticalAlign=middle;whiteSpace=wrap;rounded=0;" vertex="1" parent="1">
          <mxGeometry x="200" y="70" width="60" height="30" as="geometry" />
        </mxCell>
        <mxCell id="vf-EE90771RH5l1Xeun5-57" value="&lt;font style=&quot;font-size: 8px;&quot;&gt;&lt;b&gt;1.1 initialization()&lt;/b&gt;&lt;/font&gt;" style="text;html=1;strokeColor=none;fillColor=none;align=center;verticalAlign=middle;whiteSpace=wrap;rounded=0;" vertex="1" parent="1">
          <mxGeometry x="200" y="110" width="60" height="30" as="geometry" />
        </mxCell>
        <mxCell id="vf-EE90771RH5l1Xeun5-58" value="&lt;font style=&quot;font-size: 8px;&quot;&gt;&lt;b&gt;1.2 update()&lt;/b&gt;&lt;/font&gt;" style="html=1;verticalAlign=bottom;endArrow=block;edgeStyle=elbowEdgeStyle;elbow=vertical;curved=0;rounded=0;" edge="1" parent="1">
          <mxGeometry width="80" relative="1" as="geometry">
            <mxPoint x="270" y="390" as="sourcePoint" />
            <mxPoint x="190" y="390" as="targetPoint" />
            <Array as="points">
              <mxPoint x="230" y="390" />
            </Array>
          </mxGeometry>
        </mxCell>
        <mxCell id="vf-EE90771RH5l1Xeun5-59" value="&lt;font style=&quot;font-size: 8px;&quot;&gt;&lt;b&gt;1.1.1.1 createSpaceShip()&lt;/b&gt;&lt;/font&gt;" style="html=1;verticalAlign=bottom;endArrow=block;edgeStyle=elbowEdgeStyle;elbow=vertical;curved=0;rounded=0;" edge="1" parent="1">
          <mxGeometry y="10" width="80" relative="1" as="geometry">
            <mxPoint x="374" y="250" as="sourcePoint" />
            <mxPoint x="454" y="250" as="targetPoint" />
            <mxPoint as="offset" />
          </mxGeometry>
        </mxCell>
        <mxCell id="vf-EE90771RH5l1Xeun5-60" value="&lt;font style=&quot;font-size: 8px;&quot;&gt;&lt;b&gt;1.1.1.3 createObstacle()&lt;/b&gt;&lt;/font&gt;" style="html=1;verticalAlign=bottom;endArrow=block;edgeStyle=elbowEdgeStyle;elbow=vertical;curved=0;rounded=0;" edge="1" parent="1">
          <mxGeometry y="10" width="80" relative="1" as="geometry">
            <mxPoint x="374" y="180" as="sourcePoint" />
            <mxPoint x="454" y="180" as="targetPoint" />
            <mxPoint as="offset" />
          </mxGeometry>
        </mxCell>
        <mxCell id="vf-EE90771RH5l1Xeun5-61" value="&lt;font style=&quot;font-size: 8px;&quot;&gt;&lt;b&gt;1.1.1.2 createAlien()&lt;/b&gt;&lt;/font&gt;" style="html=1;verticalAlign=bottom;endArrow=block;edgeStyle=elbowEdgeStyle;elbow=vertical;curved=0;rounded=0;" edge="1" parent="1">
          <mxGeometry y="10" width="80" relative="1" as="geometry">
            <mxPoint x="380" y="309.67" as="sourcePoint" />
            <mxPoint x="460" y="309.67" as="targetPoint" />
            <mxPoint as="offset" />
          </mxGeometry>
        </mxCell>
        <mxCell id="vf-EE90771RH5l1Xeun5-62" value="&lt;font style=&quot;font-size: 8px;&quot;&gt;&lt;b&gt;1.1.1.4 createMysteryBox()&lt;/b&gt;&lt;/font&gt;" style="html=1;verticalAlign=bottom;endArrow=block;edgeStyle=elbowEdgeStyle;elbow=vertical;curved=0;rounded=0;" edge="1" parent="1">
          <mxGeometry y="10" width="80" relative="1" as="geometry">
            <mxPoint x="380" y="390" as="sourcePoint" />
            <mxPoint x="460" y="390" as="targetPoint" />
            <mxPoint as="offset" />
          </mxGeometry>
        </mxCell>
        <mxCell id="vf-EE90771RH5l1Xeun5-63" value="&lt;font style=&quot;font-size: 14px;&quot;&gt;&lt;b&gt;START GAME&lt;/b&gt;&lt;/font&gt;" style="html=1;whiteSpace=wrap;" vertex="1" parent="1">
          <mxGeometry x="10" y="20" width="110" height="50" as="geometry" />
        </mxCell>
      </root>
    </mxGraphModel>
  </diagram>
</mxfile>
